<?xml version="1.0" encoding="utf-8"?>
<!-- Generator: Adobe Illustrator 21.0.0, SVG Export Plug-In . SVG Version: 6.00 Build 0)  -->
<svg version="1.1" id="Layer_1" xmlns="http://www.w3.org/2000/svg" xmlns:xlink="http://www.w3.org/1999/xlink" x="0px" y="0px"
	 viewBox="0 0 280 280" style="enable-background:new 0 0 280 280;" xml:space="preserve">
<style type="text/css">
	.st0{fill:#B3B3B3;}
	.st1{fill:#808285;}
</style>
<circle class="st0" cx="140" cy="140" r="113"/>
<g>
	<g>
		<g>
			<path class="st1" d="M140,137.5c-13.5,0-24.5-11-24.5-24.5s11-24.5,24.5-24.5c13.5,0,24.5,11,24.5,24.5S153.5,137.5,140,137.5z
				 M140,95.3c-9.8,0-17.7,7.9-17.7,17.7s7.9,17.7,17.7,17.7s17.7-7.9,17.7-17.7S149.8,95.3,140,95.3z"/>
		</g>
		<path class="st1" d="M140,119.4c-3.5,0-6.3-2.8-6.3-6.3c0-1.9-1.5-3.4-3.4-3.4s-3.4,1.5-3.4,3.4c0,7.2,5.9,13.1,13.1,13.1
			c1.9,0,3.4-1.5,3.4-3.4C143.4,120.9,141.9,119.4,140,119.4z"/>
		<g>
			<path class="st1" d="M185.2,148.8H94.8c-4.7,0-8.5-3.8-8.5-8.5V85.7c0-4.7,3.8-8.5,8.5-8.5h24l4-10.8c0.5-1.3,1.8-2.2,3.2-2.2
				h29.2c1.5,0,2.9,1,3.3,2.5l2.9,10.5h23.8c4.7,0,8.5,3.8,8.5,8.5v54.7C193.7,145,189.9,148.8,185.2,148.8z M94.8,84
				c-0.9,0-1.7,0.8-1.7,1.7v54.7c0,0.9,0.8,1.7,1.7,1.7h90.4c0.9,0,1.7-0.8,1.7-1.7V85.7c0-0.9-0.8-1.7-1.7-1.7h-26.4
				c-1.5,0-2.9-1-3.3-2.5L152.7,71h-24.3l-4,10.8c-0.5,1.3-1.8,2.2-3.2,2.2H94.8z"/>
		</g>
		<g>
			<path class="st1" d="M107.6,74.2h-13c-1.9,0-3.4-1.5-3.4-3.4c0-1.9,1.5-3.4,3.4-3.4h13c1.9,0,3.4,1.5,3.4,3.4
				C110.9,72.7,109.4,74.2,107.6,74.2z"/>
		</g>
	</g>
	<g>
		<path class="st1" d="M107.2,185.3c-0.5,0.6-1.1,1-1.8,1.3c-0.7,0.3-1.6,0.5-2.7,0.5c-0.8,0-1.5-0.1-2.1-0.3
			c-0.6-0.2-1.2-0.6-1.6-1c-0.4-0.5-0.8-1.1-1-1.8c-0.2-0.7-0.4-1.6-0.4-2.6v-10h2.6v10c0,0.7,0.1,1.3,0.2,1.7
			c0.2,0.5,0.4,0.8,0.6,1.1c0.3,0.3,0.6,0.4,0.9,0.5c0.3,0.1,0.7,0.1,1.1,0.1c1.1,0,1.9-0.2,2.6-0.6c0.7-0.4,1.1-1,1.4-1.6v-11.2
			h2.6v15.5h-2.5L107.2,185.3z"/>
		<path class="st1" d="M126.8,179.2c0,1.1-0.1,2.2-0.4,3.1s-0.7,1.8-1.2,2.5c-0.5,0.7-1.1,1.2-1.9,1.6c-0.7,0.4-1.6,0.6-2.5,0.6
			c-1,0-1.8-0.2-2.6-0.5s-1.4-0.7-1.9-1.3v7.4h-2.6v-21.4h2.4l0.1,1.7c0.5-0.6,1.2-1.1,1.9-1.5s1.6-0.5,2.6-0.5c1,0,1.8,0.2,2.6,0.6
			c0.7,0.4,1.4,0.9,1.9,1.6c0.5,0.7,0.9,1.5,1.2,2.5c0.3,1,0.4,2,0.4,3.2V179.2z M124.2,178.9c0-0.8-0.1-1.5-0.2-2.2
			c-0.2-0.7-0.4-1.3-0.8-1.8c-0.3-0.5-0.8-0.9-1.3-1.2c-0.5-0.3-1.1-0.5-1.9-0.5c-0.4,0-0.9,0.1-1.2,0.2c-0.4,0.1-0.7,0.3-1,0.4
			c-0.3,0.2-0.6,0.4-0.8,0.7c-0.2,0.3-0.4,0.5-0.6,0.9v7.4c0.2,0.3,0.4,0.6,0.6,0.9c0.2,0.3,0.5,0.5,0.8,0.7s0.6,0.3,1,0.4
			c0.4,0.1,0.8,0.2,1.2,0.2c0.7,0,1.3-0.2,1.9-0.5c0.5-0.3,1-0.7,1.3-1.2c0.3-0.5,0.6-1.1,0.8-1.8c0.2-0.7,0.2-1.4,0.2-2.2V178.9z"
			/>
		<path class="st1" d="M133,186.8h-2.6v-21.9h2.6V186.8z"/>
		<path class="st1" d="M136.6,178.9c0-1.1,0.2-2.2,0.5-3.1c0.3-1,0.8-1.8,1.4-2.5c0.6-0.7,1.3-1.3,2.2-1.7c0.9-0.4,1.8-0.6,2.9-0.6
			c1.1,0,2.1,0.2,3,0.6s1.6,1,2.2,1.7c0.6,0.7,1.1,1.5,1.4,2.5c0.3,1,0.5,2,0.5,3.1v0.3c0,1.1-0.2,2.2-0.5,3.1
			c-0.3,1-0.8,1.8-1.4,2.5c-0.6,0.7-1.3,1.2-2.2,1.6c-0.9,0.4-1.8,0.6-2.9,0.6s-2.1-0.2-2.9-0.6c-0.9-0.4-1.6-0.9-2.2-1.6
			c-0.6-0.7-1.1-1.5-1.4-2.5c-0.3-1-0.5-2-0.5-3.1V178.9z M139.2,179.2c0,0.8,0.1,1.5,0.3,2.2c0.2,0.7,0.5,1.3,0.8,1.8
			c0.4,0.5,0.8,0.9,1.4,1.2c0.5,0.3,1.2,0.5,1.9,0.5c0.7,0,1.4-0.2,1.9-0.5s1-0.7,1.4-1.2c0.4-0.5,0.6-1.1,0.8-1.8s0.3-1.4,0.3-2.2
			v-0.3c0-0.8-0.1-1.5-0.3-2.2c-0.2-0.7-0.5-1.3-0.8-1.8c-0.4-0.5-0.8-0.9-1.4-1.2s-1.2-0.5-1.9-0.5c-0.7,0-1.4,0.2-1.9,0.5
			s-1,0.7-1.4,1.2c-0.4,0.5-0.6,1.1-0.8,1.8c-0.2,0.7-0.3,1.4-0.3,2.2V179.2z"/>
		<path class="st1" d="M163.5,186.8c-0.1-0.2-0.2-0.4-0.2-0.7c-0.1-0.3-0.1-0.6-0.1-0.9c-0.2,0.3-0.5,0.5-0.8,0.7
			c-0.3,0.2-0.6,0.4-1,0.6c-0.4,0.2-0.8,0.3-1.2,0.4s-0.9,0.2-1.4,0.2c-0.8,0-1.5-0.1-2.2-0.4c-0.6-0.2-1.2-0.6-1.6-1
			c-0.5-0.4-0.8-0.9-1.1-1.5c-0.2-0.6-0.4-1.2-0.4-1.8c0-0.8,0.2-1.6,0.5-2.2c0.3-0.6,0.8-1.2,1.4-1.6c0.6-0.4,1.3-0.8,2.2-1
			c0.9-0.2,1.8-0.3,2.9-0.3h2.6v-1.2c0-0.9-0.3-1.7-0.8-2.2c-0.6-0.5-1.4-0.8-2.4-0.8c-0.5,0-0.9,0.1-1.4,0.2
			c-0.4,0.1-0.8,0.3-1,0.5c-0.3,0.2-0.5,0.5-0.7,0.8s-0.2,0.6-0.2,0.9h-2.7c0-0.6,0.1-1.1,0.4-1.6c0.3-0.5,0.7-1,1.2-1.5
			s1.2-0.8,1.9-1.1c0.8-0.3,1.6-0.4,2.5-0.4c0.8,0,1.6,0.1,2.3,0.3c0.7,0.2,1.3,0.5,1.8,1s0.9,1,1.2,1.6c0.3,0.6,0.4,1.4,0.4,2.3
			v7.2c0,0.5,0,1.1,0.1,1.7s0.2,1.1,0.4,1.5v0.2H163.5z M159.1,184.8c0.5,0,0.9-0.1,1.3-0.2c0.4-0.1,0.8-0.3,1.1-0.5
			c0.3-0.2,0.6-0.5,0.9-0.7c0.3-0.3,0.5-0.6,0.6-0.9v-3.2h-2.2c-1.5,0-2.7,0.2-3.5,0.7c-0.8,0.5-1.2,1.2-1.2,2.1
			c0,0.4,0.1,0.7,0.2,1s0.3,0.6,0.6,0.8c0.3,0.2,0.6,0.4,0.9,0.6C158.2,184.7,158.6,184.8,159.1,184.8z"/>
		<path class="st1" d="M169.2,178.9c0-1.2,0.1-2.3,0.4-3.2c0.3-1,0.7-1.8,1.2-2.5s1.2-1.2,1.9-1.6s1.6-0.6,2.5-0.6
			c0.9,0,1.8,0.2,2.5,0.5c0.7,0.3,1.3,0.8,1.8,1.4v-8.1h2.6v21.9h-2.4l-0.1-1.7c-0.5,0.6-1.1,1.1-1.9,1.4c-0.7,0.3-1.6,0.5-2.6,0.5
			c-0.9,0-1.7-0.2-2.5-0.6s-1.4-0.9-1.9-1.6s-0.9-1.5-1.2-2.5c-0.3-1-0.4-2-0.4-3.1V178.9z M171.9,179.2c0,0.8,0.1,1.5,0.2,2.2
			c0.2,0.7,0.4,1.3,0.7,1.8c0.3,0.5,0.8,0.9,1.3,1.2c0.5,0.3,1.1,0.4,1.8,0.4c0.5,0,0.9-0.1,1.3-0.2c0.4-0.1,0.7-0.3,1-0.5
			c0.3-0.2,0.6-0.4,0.8-0.7s0.4-0.6,0.6-0.9v-7.1c-0.2-0.3-0.4-0.6-0.6-0.9c-0.2-0.3-0.5-0.5-0.8-0.7c-0.3-0.2-0.6-0.3-1-0.5
			c-0.4-0.1-0.8-0.2-1.2-0.2c-0.7,0-1.3,0.1-1.9,0.5c-0.5,0.3-0.9,0.7-1.3,1.2c-0.3,0.5-0.6,1.1-0.7,1.8c-0.2,0.7-0.2,1.4-0.2,2.2
			V179.2z"/>
		<path class="st1" d="M117.5,210.1c0,1.1-0.1,2.2-0.4,3.1s-0.7,1.8-1.2,2.5c-0.5,0.7-1.1,1.2-1.9,1.6c-0.7,0.4-1.6,0.6-2.5,0.6
			c-1,0-1.8-0.2-2.6-0.5s-1.4-0.7-1.9-1.3v7.4h-2.6v-21.4h2.4l0.1,1.7c0.5-0.6,1.2-1.1,1.9-1.5s1.6-0.5,2.6-0.5c1,0,1.8,0.2,2.6,0.6
			c0.7,0.4,1.4,0.9,1.9,1.6c0.5,0.7,0.9,1.5,1.2,2.5c0.3,1,0.4,2,0.4,3.2V210.1z M114.8,209.8c0-0.8-0.1-1.5-0.2-2.2
			c-0.2-0.7-0.4-1.3-0.8-1.8c-0.3-0.5-0.8-0.9-1.3-1.2c-0.5-0.3-1.1-0.5-1.9-0.5c-0.4,0-0.9,0.1-1.2,0.2c-0.4,0.1-0.7,0.3-1,0.4
			c-0.3,0.2-0.6,0.4-0.8,0.7c-0.2,0.3-0.4,0.5-0.6,0.9v7.4c0.2,0.3,0.4,0.6,0.6,0.9c0.2,0.3,0.5,0.5,0.8,0.7s0.6,0.3,1,0.4
			c0.4,0.1,0.8,0.2,1.2,0.2c0.7,0,1.3-0.2,1.9-0.5c0.5-0.3,1-0.7,1.3-1.2c0.3-0.5,0.6-1.1,0.8-1.8c0.2-0.7,0.2-1.4,0.2-2.2V209.8z"
			/>
		<path class="st1" d="M123.5,204c0.6-0.7,1.2-1.2,2-1.6c0.8-0.4,1.6-0.6,2.6-0.6c0.8,0,1.4,0.1,2,0.3c0.6,0.2,1.1,0.5,1.6,1
			c0.4,0.5,0.8,1,1,1.7c0.2,0.7,0.4,1.6,0.4,2.6v10.1h-2.6v-10.2c0-0.6-0.1-1.1-0.2-1.5c-0.1-0.4-0.3-0.8-0.6-1s-0.6-0.5-1-0.6
			s-0.8-0.2-1.3-0.2c-0.9,0-1.6,0.2-2.3,0.7c-0.6,0.5-1.2,1.1-1.5,1.8v11h-2.6v-21.9h2.6V204z"/>
		<path class="st1" d="M136.2,209.7c0-1.1,0.2-2.2,0.5-3.1c0.3-1,0.8-1.8,1.4-2.5c0.6-0.7,1.3-1.3,2.2-1.7c0.9-0.4,1.8-0.6,2.9-0.6
			c1.1,0,2.1,0.2,3,0.6c0.9,0.4,1.6,1,2.2,1.7c0.6,0.7,1.1,1.5,1.4,2.5c0.3,1,0.5,2,0.5,3.1v0.3c0,1.1-0.2,2.2-0.5,3.1
			c-0.3,1-0.8,1.8-1.4,2.5c-0.6,0.7-1.3,1.2-2.2,1.6c-0.9,0.4-1.8,0.6-2.9,0.6s-2.1-0.2-2.9-0.6c-0.9-0.4-1.6-0.9-2.2-1.6
			c-0.6-0.7-1.1-1.5-1.4-2.5c-0.3-1-0.5-2-0.5-3.1V209.7z M138.9,210.1c0,0.8,0.1,1.5,0.3,2.2c0.2,0.7,0.5,1.3,0.8,1.8
			c0.4,0.5,0.8,0.9,1.4,1.2c0.5,0.3,1.2,0.5,1.9,0.5c0.7,0,1.4-0.2,1.9-0.5c0.6-0.3,1-0.7,1.4-1.2s0.6-1.1,0.8-1.8s0.3-1.4,0.3-2.2
			v-0.3c0-0.8-0.1-1.5-0.3-2.2c-0.2-0.7-0.5-1.3-0.8-1.8c-0.4-0.5-0.8-0.9-1.4-1.2s-1.2-0.5-1.9-0.5c-0.7,0-1.4,0.2-1.9,0.5
			c-0.5,0.3-1,0.7-1.4,1.2c-0.4,0.5-0.6,1.1-0.8,1.8c-0.2,0.7-0.3,1.4-0.3,2.2V210.1z"/>
		<path class="st1" d="M157.2,198.4v3.7h2.9v2h-2.9v9.6c0,0.4,0,0.7,0.1,1c0.1,0.2,0.2,0.4,0.4,0.6c0.2,0.1,0.3,0.2,0.5,0.3
			c0.2,0,0.4,0.1,0.6,0.1c0.2,0,0.5,0,0.7-0.1c0.2,0,0.4-0.1,0.6-0.1v2.1c-0.2,0.1-0.5,0.1-0.8,0.2c-0.3,0.1-0.7,0.1-1.2,0.1
			c-0.5,0-0.9-0.1-1.4-0.2c-0.4-0.1-0.8-0.4-1.1-0.7c-0.3-0.3-0.6-0.8-0.8-1.3c-0.2-0.5-0.3-1.2-0.3-2v-9.6h-2.8v-2h2.8v-3.7H157.2z
			"/>
		<path class="st1" d="M162.2,209.7c0-1.1,0.2-2.2,0.5-3.1c0.3-1,0.8-1.8,1.4-2.5c0.6-0.7,1.3-1.3,2.2-1.7s1.8-0.6,2.9-0.6
			c1.1,0,2.1,0.2,3,0.6c0.9,0.4,1.6,1,2.2,1.7c0.6,0.7,1.1,1.5,1.4,2.5c0.3,1,0.5,2,0.5,3.1v0.3c0,1.1-0.2,2.2-0.5,3.1
			c-0.3,1-0.8,1.8-1.4,2.5c-0.6,0.7-1.3,1.2-2.2,1.6c-0.9,0.4-1.8,0.6-2.9,0.6s-2.1-0.2-2.9-0.6c-0.9-0.4-1.6-0.9-2.2-1.6
			c-0.6-0.7-1.1-1.5-1.4-2.5c-0.3-1-0.5-2-0.5-3.1V209.7z M164.9,210.1c0,0.8,0.1,1.5,0.3,2.2c0.2,0.7,0.5,1.3,0.8,1.8
			c0.4,0.5,0.8,0.9,1.4,1.2c0.5,0.3,1.2,0.5,1.9,0.5c0.7,0,1.4-0.2,1.9-0.5c0.6-0.3,1-0.7,1.4-1.2s0.6-1.1,0.8-1.8s0.3-1.4,0.3-2.2
			v-0.3c0-0.8-0.1-1.5-0.3-2.2c-0.2-0.7-0.5-1.3-0.8-1.8c-0.4-0.5-0.8-0.9-1.4-1.2s-1.2-0.5-1.9-0.5c-0.7,0-1.4,0.2-1.9,0.5
			s-1,0.7-1.4,1.2c-0.4,0.5-0.6,1.1-0.8,1.8c-0.2,0.7-0.3,1.4-0.3,2.2V210.1z"/>
	</g>
</g>
</svg>
